# xmcd
#
# Track frame offsets:
#	150
#	15377
#	31205
#	45797
#
# Disc length: 813 seconds
#
# Revision: 11
# Processed by: cddbd v1.5.2PL0 Copyright (c) Steve Scherf et al.
# Submitted via: audiograbber 1.83.01
#
DISCID=1b032b04
DTITLE=Emilia - Big Big World (Maxi Cd)
DYEAR=1998
DGENRE=Pop
TTITLE0=Big Big World [big Big World Album Version]
TTITLE1=Big Big World [pierre J's Big Radio Remix Version]
TTITLE2=Big Big World [tnt's Big Phat Radio Edit Version]
TTITLE3=Big Big World [karaoke Version]
EXTD=
EXTT0=
EXTT1=
EXTT2=
EXTT3=
PLAYORDER=
